<?xml version="1.0" encoding="utf-8"?>
<!-- Generator: Adobe Illustrator 15.0.0, SVG Export Plug-In . SVG Version: 6.00 Build 0)  -->
<!DOCTYPE svg PUBLIC "-//W3C//DTD SVG 1.1//EN" "http://www.w3.org/Graphics/SVG/1.1/DTD/svg11.dtd">
<svg version="1.1" id="Layer_1" xmlns="http://www.w3.org/2000/svg" xmlns:xlink="http://www.w3.org/1999/xlink" x="0px" y="0px"
	 width="200px" height="200px" viewBox="0 0 200 200" enable-background="new 0 0 200 200" xml:space="preserve">
<path opacity="0.25" fill="#231F20" d="M164.82,155.601c0,0-0.029-0.312-0.376-0.659c-0.35-0.345-1.692-1.898-1.801-2.142
	c-0.104-0.241-1.017-1.438-1.842-2.202c-0.829-0.76-1.823-1.947-2.193-2.354c-0.376-0.406-1.158-1.343-1.435-1.401
	c0,0-0.151-0.048-0.138-0.111c0.017-0.063,0.201-2.119,0.195-2.412c-0.008-0.294-0.008-0.294-0.008-0.294s0.721-0.383,0.722-0.824
	c0-0.439-0.373-1.73-0.594-2.318c-0.225-0.588-1.091-2.669-1.13-3.086c-0.039-0.416-0.166-1.54-0.461-2.225
	c-0.296-0.688-1.27-3.243-1.292-3.472c-0.021-0.229,0.414-2.308,0.494-2.8c0.081-0.488,0.21-1.803,0.555-1.919
	c0.347-0.117,2.705-0.736,2.801-1.712c0.1-0.976,0.228-3.402,0.337-4.716c0.106-1.31,0.477-4.328,0.177-5.497
	c-0.297-1.172-1.628-3.923-1.76-4.203c-0.13-0.284-2.045-3.466-4.045-3.278c-1.999,0.186-4.268,0.651-5.4,0.863
	c-1.135,0.213-0.931,0.15-0.931,0.15s-1.951-4.689-2.204-5.129c-0.249-0.438-0.249-0.438-0.249-0.438s-0.183-1.265-0.54-1.714
	l-0.104-0.199c0,0-3.047-8.327-11.67-12.475c-1.619-0.779-3.268-1.248-4.896-1.479c0.056-0.41,0.124-1.149,0.027-1.902
	c-0.146-1.121-1.208-2.649-1.208-2.649s1.328-0.697,0.231-1.294c-1.096-0.598-2.205-0.824-2.921-1.595
	c-0.717-0.771-2.718-2.146-2.718-2.146s-0.518-1.136-1.435-1.542c-0.915-0.404-1.46-0.797-1.46-0.797l-10.422-5.4l-1.294-0.233
	c0,0-0.345-0.757-0.883-1.335c-0.538-0.579-6.734-9.551-6.734-9.551s0.63-2.026,0.1-2.79c-0.532-0.763-2.512-2.697-2.863-3.268
	c-0.352-0.57-2.682-3.075-3.598-3.48c-0.916-0.404-1.832-0.81-3.134-0.856c-1.303-0.046-5.924-0.957-5.924-0.957l-1.375-3.215
	l-1.847-0.438l0.067-1.858c0,0,0.937-0.154,1.095,0.596c0.161,0.753,0.95-0.523,0.805-1.646c-0.146-1.122-0.292-2.245-0.292-2.245
	l1.436-3.672c0,0,0.563-0.167,0.596-1.097c0.035-0.93,0.28-2.596,0.28-2.596l-0.732-0.399c0,0,1.131-5.545-1.718-9.186
	c-2.848-3.639-4.914-3.155-4.914-3.155s-0.325-1.314-1.627-1.361c-1.301-0.046-1.521,0.877-1.521,0.877l-1.889,0.676
	c0,0-3.613,2.104-4.802,4.11c-1.19,2.006-1.17,6.661-1.17,6.661s-0.412,1.102-0.438,1.846c-0.026,0.744,0.458,2.81,0.612,3.747
	c0.152,0.936,1.194,3.021,1.194,3.021s0.306,1.874,0.093,2.611s0.311,1.687,0.311,1.687l0.752-0.16l0.026-0.743
	c0,0,0.745,0.026,0.717,0.769c-0.026,0.746-0.585,0.725-0.798,1.463c-0.213,0.736,0.299,2.058-0.459,2.404
	c-0.756,0.344-3.009,0.823-4.31,0.777c-1.301-0.046-4.325,1.148-4.325,1.148l-0.743-0.025c0,0-0.91-0.594-1.475-0.426
	c-0.565,0.166-1.515,0.69-1.515,0.69s-2.683,2.139-4.019,3.021c-1.334,0.883-2.344,3.083-2.756,4.185
	c-0.413,1.102,0.605,3.932,0.605,3.932l-2.486,6.987l-1.149,0.888l-4.105,10.653c0,0-1.701,0.683-1.169,1.448
	c0.532,0.762,0.532,0.762,0.532,0.762l0.943-0.336c0,0,0.544,0.391,0.936-0.154c0.392-0.544,1.321-0.512,1.321-0.512l6.769,3.409
	c0,0-0.239,1.481,0.305,1.873c0.544,0.391,1.879-0.491,1.879-0.491s2.008,1.188,3.282,1.979c1.272,0.789,4.965,1.668,4.965,1.668
	l-0.031,6.143l-0.586,0.724c0,0-0.922-0.219-0.769,0.718c0.153,0.936,0.356,10.811-0.341,14.698
	c-0.698,3.885-1.076,9.271-1.144,11.132c-0.067,1.858,0.704,6.356,0.126,6.893c-0.579,0.539-0.998,1.828-0.998,1.828
	s-0.744-0.026-1.135,0.517c-0.392,0.545-0.789,1.275-1.043,3.13c-0.253,1.852-0.544,4.82-0.544,4.82s0.158,0.75,0.133,1.494
	c-0.028,0.744-0.671,3.141-0.671,3.141s-0.573,0.354-0.591,0.912c-0.02,0.556-0.066,1.858,0.491,1.878
	c0.558,0.021,1.163-1.26,1.163-1.26l0.046-1.303l0.691-3.699l0.318,1.499l0.119,1.867c0,0-1.188,2.006-1.029,2.757
	c0.159,0.75,0.697,6.542,0.83,8.036c0.13,1.492,0.185,5.221,0.185,5.221s-0.233,1.296,0.1,2.424
	c0.333,1.13,1.095,11.024,0.883,11.762c-0.214,0.737-2.38,4.011-2.406,4.755c-0.026,0.746-1.581,2.552,0.99,3.573
	c2.569,1.022,7.212,1.377,8.561,0.121s0.465-2.589,0.465-2.589s0.597-1.099,0.437-1.848c-0.158-0.75,0.606-1.282,0.632-2.026
	c0.026-0.743,0.066-1.858,0.066-1.858s0.228-1.107,0.066-1.86c-0.158-0.75-0.756-10.083-0.674-12.314
	c0.079-2.229,0.59-6.123,0.59-6.123s1.204-2.377,1.038-2.942c-0.166-0.564-1.089-0.783-1.089-0.783s0.598-1.095,0.618-1.653
	c0.02-0.559,0.918-4.808,0.918-4.808s1.487,0.054,2.098-1.414s1.456-4.231,1.456-4.231s0.863,1.894,1.389,2.843
	c0.524,0.949,1.222,2.277,1.222,2.277s0.344,0.76-0.241,1.481c-0.584,0.724-1.461,4.417-1.148,6.104
	c0.31,1.688,0.862,7.109,0.616,8.773c-0.245,1.669-1.209,7.778-1.209,7.778l-0.04,1.117c0,0,0.153,0.936-0.06,1.671
	c-0.212,0.739-0.665,2.957-0.665,2.957s-0.447,2.031,0.286,2.431c0.728,0.397,2.562,1.207,4.402,1.832
	c1.838,0.625,3.713,0.32,5.73,1.137c2.02,0.816,7.399,1.382,8.518,1.421c1.114,0.04,3.745-0.608,3.599-1.732
	c-0.147-1.121-1.236-1.904-1.236-1.904s-1.646-0.806-2.937-1.224c-1.287-0.419-3.286-1.794-4.216-1.827
	c-0.931-0.033-2.372-1.389-2.538-1.953c-0.167-0.565-1.993-1.561-2.157-2.126c-0.167-0.564,0.246-6.882,1.096-9.829
	c0.851-2.948,2.226-10.162,2.226-10.162s0.764-5.745,1.157-6.288c0.392-0.545,1.527-1.062,2.291-1.594
	c0.765-0.532,1.953-2.538,1.667-4.969c-0.284-2.43-1.912-3.792-1.912-3.792s1.077-4.057,1.874-5.518
	c0.798-1.462,1.793-8.503,1.793-8.503l0.611-1.468c0,0,0.321-3.712,0.181-5.02c-0.139-1.309,1.064-8.899,1.667-10.182
	c0.606-1.282,0.266-2.225-0.51-1.322c-0.777,0.903-0.777,0.903-0.777,0.903s-0.259-3.174-0.193-5.035
	c0.067-1.859,1.076-4.056,0.574-5.565c-0.506-1.506-0.813-3.38-0.813-3.38l-0.237-3.732c0,0-1.091-0.784-0.876-1.521
	c0.212-0.736,0.682-3.513,0.682-3.513s0.273-2.412,0.294-2.97c0.02-0.558,0.081-2.232-0.081-2.982
	c-0.159-0.75-1.426-6.941-1.426-6.941s0.597-1.096,1.309-0.139c0.708,0.956,7.291,9.571,7.291,9.571l0.883,1.335
	c0,0-0.227,1.109,0.125,1.681c0.351,0.571,2.219,0.451,2.744,1.402c0.523,0.949,2.21,0.638,3.864,1.254
	c1.653,0.618,9.032,2.559,9.032,2.559l1.248,1.535c0,0,1.309-0.14,1.646,0.802c0.341,0.943,1.037,2.271,1.755,3.042
	c0.03,0.032,0.055,0.046,0.083,0.072c-3.755,0.947-6.777,2.688-8.129,3.858c-2.721,2.354-8.472,9.109-7.304,17.991
	c0,0,0.232,2.037,0.257,2.285c0.023,0.251,0.608,3.348,1.155,3.8c0.547,0.454,0.392,0.328,0.392,0.328s0.058,1.787,0.452,2.421
	c0,0-2.053,0.811-2.491,0.906c-0.439,0.099-1.77,0.838-2.074,2.38c-0.301,1.54-0.914,5.183-1.024,5.807
	c-0.108,0.63-0.328,1.882-0.512,2.29c-0.187,0.411-0.095,0.793,0.014,1.345c0.104,0.549,0.786,2.726,0.914,3.188
	c0.127,0.466,0.328,1.427,1.463,1.57l0.591,0.028c0,0,0.23,1.269,0.077,2.627c-0.151,1.357-1.032,7.516-1.091,8.084
	c-0.06,0.564-0.074,0.616-0.074,0.616s-1.724,0.435-1.375,2.396c0,0-0.014,0.716-0.094,0.994c-0.078,0.283-0.741,2.865-0.853,3.024
	c-0.109,0.155-0.631,0.204-0.775,0.469c-0.145,0.267-0.681,0.801-0.379,1.317c0.299,0.518,1.514,2.043,1.702,2.257
	s0.194,0.718-0.012,0.777c-0.204,0.062-2.074,0.048-3.774,1.404c-1.699,1.357-5.789,4.555-6.149,4.755
	c-0.359,0.202-0.879,0.715-0.879,1.386c0.001,0.673,0.047,1.172,0.595,1.645c0.549,0.476,5.268,3.981,5.996,4.585
	c0.73,0.605,7.276,5.915,7.705,6.23c0.428,0.317,0.915,0.798,1.918,0.514c1.002-0.282,1.272-0.308,1.882-0.531
	c0.606-0.228,14.64-5.154,15.488-5.528c0.845-0.373,1.343-0.743,1.296-1.409c-0.049-0.669-0.248-1.294-0.43-1.442
	c-0.183-0.151-1.668-1.51-1.668-1.51s-0.147-1.445-0.217-1.592c-0.069-0.148-0.533-1.631-0.567-2.438
	c-0.033-0.81-0.425-6.642-0.478-6.9c-0.053-0.262,0.096-0.347,0.241-0.262c0.147,0.083,1.288,1.336,1.595,1.924
	c0.308,0.586,0.719,1.095,1.397,1.002c0.675-0.092,4.231-0.858,5.089-1.136c0.856-0.276,4.091-1.32,4.091-1.32
	s0.372-0.056,0.461-0.002c0.09,0.057,0.319,0.265,0.64,0.319c0.318,0.056,0.338,0.242,0.338,0.242s0.256,0.729,0.484,0.92
	c0.229,0.188,0.181,0.359,0.181,0.359s-0.076,0.976,0.417,1.098c0,0,0.166,0.191-0.147,0.435c-0.314,0.237-0.939,0.508-1.482,1.439
	c-0.542,0.933-3.037,5.262-3.288,6.188c-0.246,0.93-0.089,1.482-0.052,1.667c0.038,0.183,0.272,0.666,0.989,1.146
	c0.717,0.479,4.958,3.589,5.318,3.85c0.36,0.26,6.119,4.571,6.543,4.827c0.424,0.254,1.068,0.654,1.528,0.612
	c0.456-0.043,1.522-0.312,2.279-0.551c0.755-0.238,6.027-2.264,6.944-2.561c0.916-0.298,5.813-2.058,6.419-2.324
	c0.605-0.266,1.128-0.315,1.092-0.879c-0.03-0.564-0.07-1.212-0.231-1.573c-0.158-0.365-0.86-1.581-0.898-1.766
	c-0.038-0.186-0.333-1.294-0.833-1.94c-0.501-0.643-1.326-1.366-1.503-1.685c-0.178-0.321-1.904-2.869-2.079-3.145
	c-0.174-0.28-0.458-0.841-1.01-1.126c-0.55-0.282-2.323-1.272-2.353-1.354c-0.028-0.081-0.08-0.182,0.408-0.354
	c0.487-0.171,10.447-3.961,10.92-4.28C164.762,157.433,165.168,157.731,164.82,155.601z M55.968,74.17c0,0-0.896-0.964-0.87-1.708
	c0.027-0.744,1.441-3.858,1.441-3.858l2.436,4.742l0.883,1.335l0.133,1.493L55.968,74.17z M120.094,87.824
	c0,0,0.002,0.026,0.002,0.036c-0.004,0.001-0.009,0.002-0.013,0.003C120.09,87.839,120.094,87.824,120.094,87.824z"/>
</svg>
