<?xml version="1.0" encoding="utf-8"?>
<!-- Generator: Adobe Illustrator 15.0.0, SVG Export Plug-In . SVG Version: 6.00 Build 0)  -->
<!DOCTYPE svg PUBLIC "-//W3C//DTD SVG 1.1//EN" "http://www.w3.org/Graphics/SVG/1.1/DTD/svg11.dtd">
<svg version="1.1" id="Layer_1" xmlns="http://www.w3.org/2000/svg" xmlns:xlink="http://www.w3.org/1999/xlink" x="0px" y="0px"
	 width="60px" height="60px" viewBox="0 0 60 60" enable-background="new 0 0 60 60" xml:space="preserve">
<path fill="#00D38C" d="M2,51.381V7.35C2,3.843,4.843,1,8.352,1h44.03c3.507,0,6.351,2.843,6.351,6.35v44.031
	c0,3.508-2.844,6.352-6.351,6.352H8.352C4.843,57.732,2,54.889,2,51.381z"/>
<path fill="#FFFFFF" d="M30.149,24.651h-1.584v4.685h1.584c0.471,0,0.878-0.057,1.218-0.171c0.343-0.114,0.625-0.264,0.846-0.45
	c0.221-0.185,0.387-0.399,0.492-0.642c0.107-0.241,0.16-0.491,0.16-0.749v-0.492c0-0.612-0.215-1.13-0.643-1.551
	C31.795,24.862,31.104,24.651,30.149,24.651"/>
<path fill="#FFFFFF" d="M45.186,29.366c0-1.747-1.146-3.494-3.398-4.795c1.367-4.954-1.588-8.161-6.889-6.954
	c-1.398-2.35-3.209-3.494-4.955-3.494c-1.778,0-3.493,1.145-4.795,3.398c-4.985-1.365-8.161,1.588-6.954,6.859
	c-2.35,1.428-3.492,3.238-3.492,4.985c0,1.777,1.143,3.492,3.396,4.793c-1.365,4.986,1.586,8.16,6.858,6.955
	c1.428,2.35,3.239,3.492,4.985,3.492c1.746,0,3.492-1.144,4.794-3.397c4.953,1.366,8.16-1.588,6.955-6.858
	C44.04,32.921,45.186,31.111,45.186,29.366 M35.348,27.218c0,0.542-0.093,1.064-0.277,1.562c-0.186,0.5-0.484,0.941-0.898,1.327
	c-0.414,0.386-0.947,0.695-1.604,0.93c-0.656,0.234-1.461,0.354-2.417,0.354h-1.584v4.021c0,0.256-0.11,0.486-0.332,0.695
	c-0.22,0.205-0.517,0.311-0.886,0.311c-0.385,0-0.696-0.123-0.932-0.363c-0.235-0.242-0.352-0.494-0.352-0.75V23.518
	c0-0.257,0.117-0.489,0.352-0.696c0.235-0.207,0.546-0.31,0.932-0.31h2.802c0.898,0,1.675,0.114,2.332,0.341
	c0.656,0.229,1.197,0.548,1.625,0.953c0.43,0.405,0.742,0.88,0.94,1.422c0.201,0.542,0.302,1.127,0.302,1.753v0.237H35.348z"/>
</svg>
