<?xml version="1.0" encoding="utf-8"?>
<!-- Generator: Adobe Illustrator 15.0.0, SVG Export Plug-In . SVG Version: 6.00 Build 0)  -->
<!DOCTYPE svg PUBLIC "-//W3C//DTD SVG 1.1//EN" "http://www.w3.org/Graphics/SVG/1.1/DTD/svg11.dtd">
<svg version="1.1" id="Layer_1" xmlns="http://www.w3.org/2000/svg" xmlns:xlink="http://www.w3.org/1999/xlink" x="0px" y="0px"
	 width="30px" height="30px" viewBox="0 0 30 30" enable-background="new 0 0 30 30" xml:space="preserve">
<g>
	<path fill="none" stroke="#FFFFFF" stroke-miterlimit="10" d="M26.795,14.656c0-1.389-0.911-2.78-2.706-3.818
		c1.089-3.944-1.263-6.497-5.487-5.538c-1.111-1.871-2.554-2.782-3.944-2.782c-1.417,0-2.781,0.911-3.819,2.706
		C6.867,4.137,4.34,6.489,5.3,10.686c-1.871,1.137-2.782,2.579-2.782,3.97c0,1.414,0.91,2.781,2.706,3.818
		c-1.088,3.971,1.263,6.498,5.46,5.539c1.137,1.869,2.58,2.78,3.969,2.78c1.391,0,2.783-0.911,3.818-2.706
		c3.946,1.089,6.5-1.263,5.541-5.461C25.884,17.488,26.795,16.046,26.795,14.656"/>
</g>
<path fill="#FFFFFF" d="M18.96,12.948v-0.19c0-0.5-0.08-0.964-0.239-1.397c-0.158-0.431-0.408-0.809-0.748-1.132
	c-0.342-0.323-0.773-0.576-1.296-0.759c-0.522-0.181-1.141-0.272-1.856-0.272h-2.232c-0.306,0-0.553,0.082-0.741,0.247
	c-0.187,0.164-0.282,0.35-0.282,0.554v9.39c0,0.203,0.095,0.404,0.282,0.594c0.186,0.192,0.435,0.291,0.741,0.291
	c0.295,0,0.53-0.082,0.708-0.246c0.176-0.166,0.263-0.353,0.263-0.555V16.27h1.261c0.761,0,1.402-0.095,1.925-0.28
	c0.523-0.187,0.947-0.435,1.277-0.74c0.328-0.306,0.568-0.659,0.718-1.056C18.889,13.793,18.961,13.38,18.96,12.948L18.96,12.948z
	 M16.984,13.033c0,0.204-0.043,0.403-0.129,0.595c-0.084,0.193-0.215,0.364-0.392,0.511c-0.176,0.147-0.399,0.267-0.672,0.359
	c-0.272,0.091-0.597,0.137-0.971,0.137H13.56v-3.732h1.261c0.761,0,1.311,0.168,1.654,0.502c0.34,0.335,0.51,0.747,0.51,1.235
	V13.033z"/>
</svg>
