<?xml version="1.0" encoding="utf-8"?>
<!-- Generator: Adobe Illustrator 15.0.0, SVG Export Plug-In . SVG Version: 6.00 Build 0)  -->
<!DOCTYPE svg PUBLIC "-//W3C//DTD SVG 1.1//EN" "http://www.w3.org/Graphics/SVG/1.1/DTD/svg11.dtd">
<svg version="1.1" id="Layer_1" xmlns="http://www.w3.org/2000/svg" xmlns:xlink="http://www.w3.org/1999/xlink" x="0px" y="0px"
	 width="30px" height="30px" viewBox="2.5 2.5 30 30" enable-background="new 2.5 2.5 30 30" xml:space="preserve">
<g>
	<path fill="#FFFFFF" d="M17.683,12.854h-1.554v4.601h1.554c0.462,0,0.861-0.057,1.197-0.169c0.336-0.113,0.612-0.26,0.829-0.442
		c0.217-0.181,0.378-0.392,0.483-0.63c0.104-0.237,0.157-0.482,0.157-0.733v-0.484c0-0.602-0.209-1.11-0.629-1.523
		C19.3,13.061,18.621,12.854,17.683,12.854"/>
	<path fill="#FFFFFF" d="M32.443,17.481c0-1.713-1.123-3.428-3.335-4.707c1.342-4.862-1.557-8.009-6.764-6.826
		c-1.372-2.306-3.149-3.429-4.863-3.429c-1.746,0-3.429,1.123-4.708,3.335c-4.894-1.341-8.009,1.558-6.826,6.732
		c-2.306,1.402-3.429,3.18-3.429,4.894c0,1.745,1.121,3.43,3.335,4.707c-1.341,4.895,1.557,8.011,6.731,6.828
		c1.402,2.306,3.179,3.429,4.893,3.429c1.715,0,3.43-1.123,4.707-3.336c4.864,1.341,8.011-1.557,6.829-6.732
		C31.32,20.971,32.443,19.194,32.443,17.481 M22.786,15.374c0,0.532-0.089,1.042-0.271,1.534c-0.183,0.49-0.479,0.924-0.883,1.302
		c-0.408,0.376-0.931,0.682-1.576,0.912s-1.435,0.346-2.372,0.346h-1.555v3.948c0,0.251-0.108,0.479-0.325,0.683
		c-0.218,0.203-0.508,0.305-0.872,0.305c-0.377,0-0.684-0.121-0.914-0.358c-0.23-0.236-0.347-0.482-0.347-0.734V11.739
		c0-0.251,0.117-0.48,0.347-0.683c0.232-0.203,0.536-0.304,0.914-0.304h2.752c0.881,0,1.644,0.112,2.288,0.335
		c0.644,0.225,1.177,0.537,1.596,0.935c0.42,0.398,0.729,0.864,0.924,1.396c0.195,0.533,0.294,1.106,0.294,1.722V15.374z"/>
</g>
</svg>
