<?xml version="1.0" encoding="utf-8"?>
<!-- Generator: Adobe Illustrator 15.0.0, SVG Export Plug-In . SVG Version: 6.00 Build 0)  -->
<!DOCTYPE svg PUBLIC "-//W3C//DTD SVG 1.1//EN" "http://www.w3.org/Graphics/SVG/1.1/DTD/svg11.dtd">
<svg version="1.1" id="Layer_1" xmlns="http://www.w3.org/2000/svg" xmlns:xlink="http://www.w3.org/1999/xlink" x="0px" y="0px"
	 width="135px" height="142.667px" viewBox="0 0 135 142.667" enable-background="new 0 0 135 142.667" xml:space="preserve">
<path opacity="0.25" enable-background="new    " d="M0.5,126.667v-104c0-8.284,6.716-15,15-15h104c8.283,0,15,6.716,15,15v104
	c0,8.283-6.717,15-15,15h-104C7.215,141.667,0.5,134.951,0.5,126.667z"/>
<path fill="#00D38C" d="M0.5,119.667v-104c0-8.284,6.716-15,15-15h104c8.283,0,15,6.716,15,15v104c0,8.283-6.717,15-15,15h-104
	C7.215,134.667,0.5,127.951,0.5,119.667z"/>
<path fill="#FFFFFF" d="M66.987,56.531h-3.74v11.067h3.74c1.111,0,2.072-0.135,2.878-0.404c0.809-0.271,1.475-0.625,1.996-1.062
	c0.521-0.438,0.91-0.943,1.162-1.518c0.254-0.57,0.379-1.16,0.379-1.767v-1.164c0-1.446-0.504-2.669-1.516-3.664
	C70.877,57.03,69.242,56.531,66.987,56.531"/>
<path fill="#FFFFFF" d="M102.5,67.667c0-4.125-2.701-8.251-8.025-11.326c3.229-11.699-3.75-19.274-16.273-16.424
	c-3.301-5.55-7.574-8.251-11.7-8.251c-4.2,0-8.25,2.701-11.325,8.026c-11.776-3.226-19.275,3.749-16.425,16.2
	c-5.55,3.375-8.25,7.65-8.25,11.775c0,4.2,2.699,8.25,8.025,11.325C35.3,90.766,42.274,98.266,54.724,95.417
	c3.375,5.549,7.65,8.25,11.775,8.25s8.249-2.701,11.325-8.026C89.523,98.867,97.1,91.891,94.25,79.44
	C99.799,76.064,102.5,71.791,102.5,67.667 M79.266,62.594c0,1.28-0.219,2.511-0.656,3.689c-0.438,1.18-1.146,2.223-2.123,3.134
	c-0.979,0.908-2.24,1.642-3.791,2.197s-3.451,0.834-5.708,0.834h-3.74v9.5c0,0.604-0.262,1.15-0.785,1.641
	c-0.522,0.49-1.22,0.734-2.096,0.734c-0.909,0-1.643-0.289-2.198-0.859c-0.555-0.571-0.834-1.164-0.834-1.771V53.854
	c0-0.606,0.279-1.154,0.834-1.644c0.556-0.488,1.289-0.732,2.198-0.732h6.621c2.122,0,3.956,0.271,5.506,0.808
	c1.549,0.541,2.83,1.291,3.84,2.249c1.012,0.959,1.75,2.081,2.223,3.359c0.473,1.282,0.709,2.662,0.709,4.144V62.594z"/>
</svg>
