<?xml version="1.0" encoding="utf-8"?>
<!-- Generator: Adobe Illustrator 15.0.0, SVG Export Plug-In . SVG Version: 6.00 Build 0)  -->
<!DOCTYPE svg PUBLIC "-//W3C//DTD SVG 1.1//EN" "http://www.w3.org/Graphics/SVG/1.1/DTD/svg11.dtd">
<svg version="1.1" id="Layer_1" xmlns="http://www.w3.org/2000/svg" xmlns:xlink="http://www.w3.org/1999/xlink" x="0px" y="0px"
	 width="30px" height="30px" viewBox="0 0 30 30" enable-background="new 0 0 30 30" xml:space="preserve">
<g id="Layer_1_1_" display="none">
	<g display="inline">
		<path fill="#00D38C" d="M27.023,25.629c0,0.273-0.219,0.493-0.494,0.493H3.839c-0.274,0-0.493-0.22-0.493-0.493v-0.986
			c0-4.934,8.879-3.945,8.879-7.893c0,0-2.96-2.96-2.96-8.386c0-3.261,2.658-5.919,5.919-5.919s5.919,2.658,5.919,5.919
			c0,5.426-2.961,8.386-2.961,8.386c0,3.945,8.879,2.959,8.879,7.893v0.986H27.023z"/>
	</g>
</g>
<g id="Layer_1_copy" display="none">
	<g display="inline">
		<path fill="#FFFFFF" d="M27.023,25.629c0,0.273-0.219,0.493-0.494,0.493H3.839c-0.274,0-0.493-0.22-0.493-0.493v-0.986
			c0-4.934,8.879-3.945,8.879-7.893c0,0-2.96-2.96-2.96-8.386c0-3.261,2.658-5.919,5.919-5.919s5.919,2.658,5.919,5.919
			c0,5.426-2.961,8.386-2.961,8.386c0,3.945,8.879,2.959,8.879,7.893v0.986H27.023z"/>
	</g>
</g>
<g id="Layer_2" display="none">
	<g display="inline">
		<path fill="#00D38C" d="M24.064,14.283v10.359c0,0.821-0.658,1.479-1.48,1.479H7.786c-0.822,0-1.48-0.657-1.48-1.479V14.283
			c0-0.822,0.658-1.48,1.48-1.48h1.48V8.364c0-3.261,2.658-5.919,5.919-5.919c3.26,0,5.918,2.658,5.918,5.919v4.439h1.479
			C23.406,12.803,24.064,13.461,24.064,14.283z M12.226,12.803h5.918V8.364c0-1.644-1.314-2.959-2.958-2.959
			s-2.959,1.315-2.959,2.959L12.226,12.803L12.226,12.803z"/>
	</g>
</g>
<g>
	<path fill="#FFFFFF" d="M24.642,15.545V23.3c0,1.549-1.252,2.801-2.8,2.801H8.054c-1.549,0-2.801-1.252-2.801-2.801v-7.755
		c0-1.468,1.145-2.68,2.585-2.788v-1.952c0-3.918,3.191-7.109,7.109-7.109c3.918,0,7.109,3.191,7.109,7.109v1.952
		C23.497,12.865,24.642,14.077,24.642,15.545z M22.488,15.545c0-0.35-0.297-0.646-0.646-0.646H11.716v-2.154h8.186v-1.939
		c0-2.733-2.222-4.955-4.955-4.955s-4.955,2.222-4.955,4.955v4.093H8.054c-0.35,0-0.646,0.297-0.646,0.646V23.3
		c0,0.351,0.296,0.646,0.646,0.646h13.788c0.35,0,0.646-0.296,0.646-0.646V15.545z M16.887,18.991c0,0.673-0.336,1.267-0.862,1.616
		v1.615h-2.154v-1.615c-0.525-0.35-0.862-0.943-0.862-1.616c0-1.063,0.862-1.938,1.939-1.938
		C16.024,17.053,16.887,17.928,16.887,18.991z"/>
</g>
</svg>
