<?xml version="1.0" encoding="utf-8"?>
<!-- Generator: Adobe Illustrator 15.0.0, SVG Export Plug-In . SVG Version: 6.00 Build 0)  -->
<!DOCTYPE svg PUBLIC "-//W3C//DTD SVG 1.1//EN" "http://www.w3.org/Graphics/SVG/1.1/DTD/svg11.dtd">
<svg version="1.1" id="Layer_1" xmlns="http://www.w3.org/2000/svg" xmlns:xlink="http://www.w3.org/1999/xlink" x="0px" y="0px"
	 width="75px" height="140px" viewBox="0 0 75 140" enable-background="new 0 0 75 140" xml:space="preserve">
<g>
	<path fill="#FFFFFF" d="M73.375,99.713h-4.634V12.139c0-2.3-1.871-4.17-4.171-4.17H10.222c-2.3,0-4.171,1.871-4.171,4.17v87.574
		H1.417V12.139c0-4.855,3.95-8.805,8.805-8.805H64.57c4.855,0,8.805,3.95,8.805,8.805V99.713z"/>
</g>
<g>
	<path fill="#FFFFFF" d="M73.375,113.615h-4.634V26.041c0-2.3-1.871-4.17-4.171-4.17H10.222c-2.3,0-4.171,1.871-4.171,4.17v87.575
		H1.417V26.041c0-4.854,3.95-8.805,8.805-8.805H64.57c4.855,0,8.805,3.95,8.805,8.805V113.615z"/>
</g>
<g>
	<path fill="#FFFFFF" d="M64.57,136.251H10.222c-4.855,0-8.805-3.95-8.805-8.805V39.873c0-4.855,3.95-8.805,8.805-8.805H64.57
		c4.855,0,8.805,3.95,8.805,8.805v87.574C73.375,132.301,69.426,136.251,64.57,136.251z M10.222,35.702
		c-2.3,0-4.171,1.871-4.171,4.171v87.574c0,2.3,1.871,4.171,4.171,4.171H64.57c2.3,0,4.171-1.871,4.171-4.171V39.873
		c0-2.3-1.871-4.171-4.171-4.171H10.222z"/>
</g>
<g>
	<g>
		<path fill="#FFFFFF" d="M38.177,76.303h-2.315v6.851h2.315c0.688,0,1.281-0.083,1.782-0.249c0.5-0.168,0.912-0.387,1.235-0.657
			c0.324-0.271,0.562-0.584,0.72-0.939c0.156-0.354,0.234-0.719,0.234-1.095v-0.72c0-0.896-0.312-1.652-0.938-2.268
			C40.584,76.611,39.572,76.303,38.177,76.303z"/>
	</g>
	<g>
		<path fill="#FFFFFF" d="M60.16,83.196c0-2.554-1.672-5.107-4.968-7.011c1.996-7.243-2.321-11.932-10.075-10.167
			c-2.042-3.436-4.688-5.107-7.242-5.107c-2.6,0-5.107,1.671-7.011,4.968c-7.289-1.997-11.932,2.321-10.168,10.028
			c-3.436,2.089-5.107,4.735-5.107,7.289c0,2.601,1.671,5.107,4.968,7.011c-1.997,7.288,2.321,11.932,10.028,10.168
			c2.089,3.436,4.735,5.106,7.289,5.106s5.106-1.671,7.01-4.969c7.243,1.997,11.933-2.32,10.168-10.028
			C58.488,88.396,60.16,85.749,60.16,83.196z M45.777,80.057c0,0.793-0.136,1.554-0.407,2.283c-0.271,0.73-0.71,1.377-1.314,1.939
			c-0.604,0.563-1.386,1.017-2.346,1.361c-0.959,0.344-2.138,0.516-3.533,0.516h-2.315v5.881c0,0.376-0.162,0.714-0.485,1.017
			c-0.324,0.302-0.756,0.453-1.298,0.453c-0.563,0-1.017-0.178-1.361-0.531c-0.344-0.354-0.516-0.721-0.516-1.095V74.646
			c0-0.375,0.172-0.715,0.516-1.017c0.344-0.303,0.798-0.454,1.361-0.454h4.098c1.313,0,2.449,0.168,3.408,0.501
			c0.96,0.334,1.752,0.798,2.378,1.392c0.625,0.594,1.083,1.288,1.377,2.08c0.291,0.793,0.438,1.647,0.438,2.565V80.057z"/>
	</g>
</g>
</svg>
