<?xml version="1.0" encoding="utf-8"?>
<!-- Generator: Adobe Illustrator 15.0.0, SVG Export Plug-In . SVG Version: 6.00 Build 0)  -->
<!DOCTYPE svg PUBLIC "-//W3C//DTD SVG 1.1//EN" "http://www.w3.org/Graphics/SVG/1.1/DTD/svg11.dtd">
<svg version="1.1" id="Layer_1" xmlns="http://www.w3.org/2000/svg" xmlns:xlink="http://www.w3.org/1999/xlink" x="0px" y="0px"
	 width="30px" height="30px" viewBox="2.5 2.5 30 30" enable-background="new 2.5 2.5 30 30" xml:space="preserve">
<g>
	<path fill="#FFFFFF" d="M17.661,32.612c-7.651,0-13.876-6.227-13.876-13.877c0-4.511,2.203-8.754,5.895-11.352
		c1.165-0.819,2.771-0.54,3.59,0.623c0.819,1.164,0.54,2.77-0.624,3.59c-2.322,1.634-3.709,4.304-3.709,7.141
		c0,4.81,3.914,8.725,8.725,8.725c4.812,0,8.726-3.915,8.726-8.725c0-2.904-1.441-5.61-3.851-7.237
		c-1.179-0.797-1.488-2.398-0.691-3.577c0.795-1.178,2.396-1.489,3.574-0.692c3.83,2.588,6.116,6.889,6.116,11.506
		C31.535,26.386,25.313,32.612,17.661,32.612z"/>
</g>
<g>
	<path fill="#FFFFFF" d="M17.661,18.834c-1.422,0-2.575-1.154-2.575-2.577V5.201c0-1.422,1.153-2.576,2.575-2.576
		c1.423,0,2.577,1.153,2.577,2.576v11.057C20.237,17.68,19.084,18.834,17.661,18.834z"/>
</g>
</svg>
