<?xml version="1.0" encoding="utf-8"?>
<!-- Generator: Adobe Illustrator 15.0.0, SVG Export Plug-In . SVG Version: 6.00 Build 0)  -->
<!DOCTYPE svg PUBLIC "-//W3C//DTD SVG 1.1//EN" "http://www.w3.org/Graphics/SVG/1.1/DTD/svg11.dtd">
<svg version="1.1" id="Layer_1" xmlns="http://www.w3.org/2000/svg" xmlns:xlink="http://www.w3.org/1999/xlink" x="0px" y="0px"
	 width="115px" height="214.667px" viewBox="0 0 115 214.667" enable-background="new 0 0 115 214.667" xml:space="preserve">
<path opacity="0.1" d="M100.46,6.334H15.311c-6.725,0-12.174,5.451-12.174,12.175V38.39v19.78v138.248v1.274v1.266
	c0,5.32,5.449,9.636,12.174,9.636h85.149c6.721,0,12.174-4.315,12.174-9.636v-1.266v-1.274V58.168v-19.78V18.509
	C112.634,11.785,107.181,6.334,100.46,6.334z M15.311,9.377h85.149c5.032,0,9.13,4.096,9.13,9.132v12.687
	c-2.231-2.269-5.489-3.707-9.13-3.707H15.311c-3.64,0-6.9,1.438-9.13,3.707V18.509C6.181,13.473,10.276,9.377,15.311,9.377z
	 M109.59,196.417c0,5.034-4.096,9.13-9.13,9.13H15.311c-5.034,0-9.13-4.094-9.13-9.13V56.474c1.068-2.96,4.801-5.229,9.13-5.229
	h85.149c4.331,0,8.06,2.27,9.13,5.229V196.417z M100.46,48.537H15.311c-3.64,0-6.9,1.272-9.13,3.276V36.99
	c0.771-3.756,4.56-6.624,9.13-6.624h85.149c4.57,0,8.358,2.865,9.13,6.622v14.823C107.358,49.809,104.101,48.537,100.46,48.537z"/>
<g opacity="0.1">
	<g>
		<path d="M58.316,114.989h-3.302v9.768h3.302c0.979,0,1.825-0.122,2.542-0.357c0.713-0.238,1.3-0.551,1.76-0.936
			c0.462-0.385,0.8-0.834,1.026-1.339c0.222-0.504,0.334-1.027,0.334-1.559v-1.026c0-1.282-0.448-2.356-1.337-3.235
			C61.749,115.425,60.308,114.989,58.316,114.989z"/>
	</g>
	<g>
		<path d="M89.654,124.814c0-3.64-2.382-7.281-7.082-9.993c2.844-10.326-3.308-17.011-14.363-14.493
			c-2.909-4.897-6.681-7.281-10.325-7.281c-3.706,0-7.281,2.384-9.992,7.082c-10.394-2.846-17.014,3.31-14.498,14.296
			c-4.897,2.979-7.281,6.752-7.281,10.392c0,3.709,2.384,7.283,7.082,9.995c-2.844,10.392,3.312,17.012,14.298,14.497
			c2.979,4.897,6.75,7.277,10.392,7.277c3.645,0,7.28-2.38,9.993-7.084c10.329,2.848,17.014-3.308,14.498-14.292
			C87.274,132.228,89.654,128.454,89.654,124.814z M69.153,120.339c0,1.133-0.196,2.216-0.581,3.254
			c-0.383,1.041-1.013,1.963-1.872,2.766c-0.863,0.8-1.979,1.449-3.346,1.94c-1.366,0.488-3.047,0.733-5.036,0.733h-3.302v8.385
			c0,0.535-0.227,1.018-0.689,1.45c-0.462,0.43-1.078,0.646-1.85,0.646c-0.803,0-1.45-0.255-1.941-0.757
			c-0.49-0.505-0.735-1.028-0.735-1.562v-24.569c0-0.535,0.245-1.02,0.735-1.452c0.491-0.433,1.137-0.646,1.941-0.646h5.843
			c1.872,0,3.492,0.239,4.858,0.713c1.367,0.478,2.496,1.142,3.389,1.986c0.891,0.848,1.547,1.835,1.966,2.967
			c0.416,1.13,0.624,2.346,0.624,3.655v0.49H69.153z"/>
	</g>
</g>
</svg>
