<?xml version="1.0" encoding="utf-8"?>
<!-- Generator: Adobe Illustrator 15.0.0, SVG Export Plug-In . SVG Version: 6.00 Build 0)  -->
<!DOCTYPE svg PUBLIC "-//W3C//DTD SVG 1.1//EN" "http://www.w3.org/Graphics/SVG/1.1/DTD/svg11.dtd">
<svg version="1.1" id="Layer_1" xmlns="http://www.w3.org/2000/svg" xmlns:xlink="http://www.w3.org/1999/xlink" x="0px" y="0px"
	 width="115px" height="214.667px" viewBox="0 -74.667 115 214.667" enable-background="new 0 -74.667 115 214.667"
	 xml:space="preserve">
<g opacity="0.1">
	<path d="M98.779-68.666H14.992c-7.485,0-13.575,6.09-13.575,13.575v21.433v21.325v92.255v21.435v21.321
		c0,7.482,6.09,13.574,13.575,13.574h83.788c7.484,0,13.574-6.09,13.574-13.572v-21.325V79.921v-92.255v-21.325v-21.433
		C112.354-62.576,106.264-68.666,98.779-68.666z M14.992-61.521h83.788c3.546,0,6.431,2.883,6.431,6.429v9.481
		c-1.915-1.034-4.105-1.625-6.431-1.625H14.992c-2.325,0-4.516,0.59-6.431,1.625v-9.481C8.561-58.636,11.445-61.521,14.992-61.521z
		 M105.21-24.284c-1.915-1.034-4.105-1.625-6.431-1.625H14.992c-2.325,0-4.516,0.59-6.431,1.625v-9.375
		c0-3.544,2.885-6.429,6.431-6.429h83.788c3.546,0,6.431,2.883,6.431,6.429V-24.284z M105.21,101.354v21.325
		c0,3.545-2.885,6.43-6.431,6.43H14.992c-3.546,0-6.431-2.885-6.431-6.43v-21.323V79.921v-92.255c0-3.546,2.885-6.43,6.431-6.43
		h83.788c3.546,0,6.431,2.884,6.431,6.43v92.255V101.354z"/>
	<path d="M58.089,43.829h-3.566v10.564h3.566c1.062,0,1.976-0.128,2.748-0.384c0.771-0.259,1.406-0.599,1.903-1.013
		c0.5-0.417,0.865-0.9,1.11-1.447c0.241-0.546,0.361-1.109,0.361-1.689v-1.109c0-1.381-0.481-2.547-1.446-3.498
		C61.801,44.305,60.24,43.829,58.089,43.829z"/>
	<path d="M84.32,43.648c3.078-11.167-3.577-18.396-15.531-15.673c-3.148-5.297-7.229-7.874-11.165-7.874
		c-4.009,0-7.874,2.576-10.809,7.659c-11.237-3.079-18.396,3.578-15.676,15.46c-5.3,3.22-7.874,7.299-7.874,11.237
		c0,4.009,2.576,7.871,7.659,10.809c-3.079,11.236,3.578,18.396,15.46,15.675c3.221,5.299,7.3,7.87,11.237,7.87
		s7.873-2.574,10.808-7.66c11.166,3.078,18.396-3.577,15.676-15.459c5.299-3.219,7.875-7.299,7.875-11.234
		C91.98,50.52,89.403,46.583,84.32,43.648z M69.807,49.617c0,1.222-0.211,2.398-0.628,3.52c-0.417,1.126-1.095,2.123-2.024,2.99
		c-0.931,0.865-2.139,1.567-3.618,2.099c-1.479,0.53-3.296,0.795-5.447,0.795h-3.566v9.066c0,0.58-0.25,1.101-0.748,1.567
		c-0.5,0.465-1.165,0.698-2.001,0.698c-0.868,0-1.568-0.274-2.099-0.817c-0.53-0.545-0.795-1.112-0.795-1.689v-26.57
		c0-0.578,0.265-1.102,0.795-1.57c0.53-0.467,1.23-0.7,2.099-0.7h6.317c2.024,0,3.776,0.259,5.254,0.772
		c1.48,0.515,2.701,1.233,3.666,2.148c0.964,0.916,1.67,1.984,2.123,3.207c0.448,1.223,0.676,2.537,0.676,3.952v0.532H69.807z"/>
</g>
</svg>
