<?xml version="1.0" encoding="utf-8"?>
<!-- Generator: Adobe Illustrator 15.0.0, SVG Export Plug-In . SVG Version: 6.00 Build 0)  -->
<!DOCTYPE svg PUBLIC "-//W3C//DTD SVG 1.1//EN" "http://www.w3.org/Graphics/SVG/1.1/DTD/svg11.dtd">
<svg version="1.1" id="Layer_1" xmlns="http://www.w3.org/2000/svg" xmlns:xlink="http://www.w3.org/1999/xlink" x="0px" y="0px"
	 width="58.311px" height="104.64px" viewBox="0 0 58.311 104.64" enable-background="new 0 0 58.311 104.64" xml:space="preserve">
<path fill="#FFFFFF" d="M50.246,2.206H8.14c-3.325,0-6.02,2.695-6.02,6.02v9.831v9.782v68.363v0.63v0.626
	c0,2.631,2.695,4.764,6.02,4.764h42.106c3.324,0,6.02-2.133,6.02-4.764v-0.626v-0.63V27.838v-9.782V8.226
	C56.266,4.901,53.57,2.206,50.246,2.206z M8.14,3.711h42.106c2.489,0,4.515,2.025,4.515,4.515V14.5
	c-1.104-1.122-2.715-1.833-4.515-1.833H8.14c-1.8,0-3.412,0.711-4.515,1.833V8.226C3.625,5.736,5.651,3.711,8.14,3.711z
	 M54.761,96.201c0,2.489-2.025,4.515-4.515,4.515H8.14c-2.489,0-4.515-2.025-4.515-4.515V27c0.529-1.464,2.374-2.586,4.515-2.586
	h42.106c2.142,0,3.986,1.122,4.515,2.586V96.201z M50.246,23.075H8.14c-1.8,0-3.412,0.629-4.515,1.62v-7.33
	C4.007,15.508,5.88,14.09,8.14,14.09h42.106c2.26,0,4.133,1.417,4.515,3.274v7.33C53.657,23.704,52.046,23.075,50.246,23.075z"/>
<g>
	<g>
		<path fill="#FFFFFF" d="M29.406,55.935h-1.632v4.83h1.632c0.485,0,0.903-0.06,1.257-0.176c0.353-0.119,0.643-0.273,0.87-0.463
			c0.229-0.191,0.396-0.412,0.508-0.662c0.11-0.249,0.165-0.508,0.165-0.771v-0.508c0-0.633-0.221-1.165-0.661-1.599
			C31.104,56.151,30.391,55.935,29.406,55.935z"/>
	</g>
	<g>
		<path fill="#FFFFFF" d="M44.903,60.794c0-1.8-1.178-3.601-3.502-4.942c1.406-5.106-1.636-8.412-7.103-7.167
			c-1.438-2.422-3.304-3.6-5.105-3.6c-1.833,0-3.601,1.178-4.942,3.502c-5.139-1.408-8.413,1.636-7.169,7.069
			c-2.422,1.473-3.6,3.339-3.6,5.139c0,1.834,1.178,3.601,3.502,4.942c-1.407,5.139,1.637,8.412,7.07,7.169
			c1.473,2.422,3.338,3.599,5.139,3.599s3.599-1.177,4.941-3.503c5.107,1.408,8.413-1.636,7.169-7.068
			C43.726,64.46,44.903,62.594,44.903,60.794z M34.765,58.581c0,0.56-0.097,1.096-0.287,1.609c-0.19,0.515-0.501,0.971-0.926,1.367
			c-0.427,0.396-0.979,0.717-1.654,0.96c-0.676,0.242-1.507,0.363-2.491,0.363h-1.632v4.146c0,0.265-0.113,0.503-0.341,0.717
			c-0.229,0.213-0.533,0.319-0.915,0.319c-0.397,0-0.717-0.126-0.96-0.374c-0.242-0.25-0.363-0.509-0.363-0.772v-12.15
			c0-0.264,0.121-0.504,0.363-0.717c0.243-0.214,0.562-0.32,0.96-0.32h2.889c0.926,0,1.727,0.118,2.403,0.353
			c0.676,0.236,1.234,0.564,1.676,0.982c0.44,0.419,0.764,0.907,0.971,1.467c0.206,0.559,0.309,1.16,0.309,1.808V58.581
			L34.765,58.581z"/>
	</g>
</g>
</svg>
