<?xml version="1.0" encoding="utf-8"?>
<!-- Generator: Adobe Illustrator 15.0.0, SVG Export Plug-In . SVG Version: 6.00 Build 0)  -->
<!DOCTYPE svg PUBLIC "-//W3C//DTD SVG 1.1//EN" "http://www.w3.org/Graphics/SVG/1.1/DTD/svg11.dtd">
<svg version="1.1" id="Layer_1" xmlns="http://www.w3.org/2000/svg" xmlns:xlink="http://www.w3.org/1999/xlink" x="0px" y="0px"
	 width="30px" height="30px" viewBox="0 0 30 30" enable-background="new 0 0 30 30" xml:space="preserve">
<g>
	<path fill="#00D38C" d="M22.148,22.933l-4.373-4.372c-1.184,0.924-2.638,1.433-4.176,1.433c-1.807,0-3.51-0.705-4.798-1.982
		c-1.277-1.278-1.983-2.981-1.983-4.799c0-1.818,0.707-3.521,1.983-4.799C10.09,7.136,11.793,6.43,13.6,6.43
		c1.818,0,3.521,0.706,4.799,1.983c1.288,1.277,1.994,2.981,1.994,4.799c0,1.537-0.52,2.991-1.442,4.174l4.372,4.374L22.148,22.933z
		 M13.6,18.342c1.372,0,2.658-0.529,3.635-1.507c0.966-0.965,1.496-2.253,1.496-3.624c0-1.371-0.529-2.659-1.496-3.635
		C16.258,8.609,14.971,8.08,13.6,8.08c-1.371,0-2.658,0.529-3.624,1.496c-0.977,0.977-1.507,2.265-1.507,3.635
		c0,1.371,0.53,2.659,1.496,3.624C10.941,17.812,12.229,18.342,13.6,18.342z"/>
</g>
</svg>
