<?xml version="1.0" encoding="utf-8"?>
<!-- Generator: Adobe Illustrator 15.0.0, SVG Export Plug-In . SVG Version: 6.00 Build 0)  -->
<!DOCTYPE svg PUBLIC "-//W3C//DTD SVG 1.1//EN" "http://www.w3.org/Graphics/SVG/1.1/DTD/svg11.dtd">
<svg version="1.1" id="Layer_1" xmlns="http://www.w3.org/2000/svg" xmlns:xlink="http://www.w3.org/1999/xlink" x="0px" y="0px"
	 width="30px" height="30px" viewBox="0 0 30 30" enable-background="new 0 0 30 30" xml:space="preserve">
<g>
	<path fill="#FFFFFF" d="M21.898,27.406c-2.251,0-4.085-1.604-4.473-3.748l-8.63-4.524c-0.723,0.518-1.628,0.828-2.611,0.828
		c-2.506,0-4.548-2.042-4.548-4.548c0-2.508,2.042-4.548,4.548-4.548c0.983,0,1.888,0.309,2.611,0.826l8.554-4.497v-0.05
		c0-2.506,2.039-4.55,4.549-4.55c2.505,0,4.547,2.044,4.547,4.55c0,2.506-2.042,4.547-4.547,4.547c-0.981,0-1.887-0.309-2.61-0.826
		l-8.554,4.496v0.105l7.932,4.185c0.828-0.827,1.963-1.343,3.232-1.343c2.505,0,4.547,2.041,4.547,4.548
		C26.445,25.362,24.403,27.406,21.898,27.406z"/>
</g>
</svg>
