<?xml version="1.0" encoding="utf-8"?>
<!-- Generator: Adobe Illustrator 15.0.0, SVG Export Plug-In . SVG Version: 6.00 Build 0)  -->
<!DOCTYPE svg PUBLIC "-//W3C//DTD SVG 1.1//EN" "http://www.w3.org/Graphics/SVG/1.1/DTD/svg11.dtd">
<svg version="1.1" id="Layer_1" xmlns="http://www.w3.org/2000/svg" xmlns:xlink="http://www.w3.org/1999/xlink" x="0px" y="0px"
	 width="150px" height="150px" viewBox="0 0 150 150" enable-background="new 0 0 150 150" xml:space="preserve">
<g id="Layer_1_1_" display="none">
	<rect display="inline" fill="#009E69" width="200" height="200"/>
	<path display="inline" fill="#00D38C" d="M57.497,143.104c-1.6-0.5-2.6-2.102-2.199-3.801c2-9.4,7.2-14.402,14.301-18.902
		c2-1.193,4.4-2.193,7-3.299c4.897-1.896,10.397-4.102,11.602-7.801c0.699-2.4-0.301-5.701-3.001-9.9c-8.3-13.399-9.8-25-4.4-34.3
		c4.2-7.2,11.302-11.5,19.201-11.5c7.801,0,15.001,4.3,19.201,11.5c5.399,9.301,3.899,20.901-4.5,34.3c-2.7,4.199-3.7,7.5-2.9,9.9
		c1.2,3.699,6.7,5.9,11.501,7.801c2.7,1.104,5.2,2.104,7.102,3.299c7.104,4.5,12.306,9.502,14.306,18.902
		c0.396,1.699-0.604,3.301-2.2,3.801c-0.396,0.104-11.396,3.299-42.503,3.299c-15.501,0-26.001-0.799-32.702-1.6
		C60.598,144.002,57.698,143.104,57.497,143.104z"/>
</g>
<rect x="-0.043" y="-0.357" fill="#009E69" width="150.043" height="151.566"/>
<g>
	<path fill="#00D38C" d="M42.442,109.208l0.575-6.741c1.439-13.484,13.279-20.883,33.586-20.883
		c20.307,0,32.146,7.398,33.584,20.842l0.576,6.782h-6.577l-0.576-6.165c-1.273-12.292-15.333-15.005-27.007-15.005
		c-11.675,0-25.734,2.713-27.009,15.044l-0.575,6.126H42.442z M58.186,54.165c0-10.071,8.427-18.622,18.416-18.622
		c9.989,0,18.417,8.551,18.417,18.622c0,12.621-7.935,22.157-18.417,22.157C66.12,76.321,58.186,66.785,58.186,54.165z
		 M64.599,54.165c0,9.002,5.139,15.785,12.004,15.785s12.003-6.783,12.003-15.785c0-6.495-5.632-12.25-12.003-12.25
		C70.231,41.915,64.599,47.669,64.599,54.165z"/>
</g>
</svg>
