<?xml version="1.0" encoding="utf-8"?>
<!-- Generator: Adobe Illustrator 15.0.0, SVG Export Plug-In . SVG Version: 6.00 Build 0)  -->
<!DOCTYPE svg PUBLIC "-//W3C//DTD SVG 1.1//EN" "http://www.w3.org/Graphics/SVG/1.1/DTD/svg11.dtd">
<svg version="1.1" id="Layer_1" xmlns="http://www.w3.org/2000/svg" xmlns:xlink="http://www.w3.org/1999/xlink" x="0px" y="0px"
	 width="30px" height="30px" viewBox="0 0 30 30" enable-background="new 0 0 30 30" xml:space="preserve">
<g id="Layer_1_copy" display="none">
	<g display="inline">
		<path fill="#FFFFFF" d="M27.023,25.629c0,0.273-0.219,0.493-0.494,0.493H3.839c-0.274,0-0.493-0.22-0.493-0.493v-0.986
			c0-4.934,8.879-3.945,8.879-7.893c0,0-2.96-2.96-2.96-8.386c0-3.261,2.658-5.919,5.919-5.919s5.919,2.658,5.919,5.919
			c0,5.426-2.961,8.386-2.961,8.386c0,3.945,8.879,2.959,8.879,7.893v0.986H27.023z"/>
	</g>
</g>
<g id="Layer_2" display="none">
	<g display="inline">
		<path fill="#00D38C" d="M24.064,14.283v10.359c0,0.821-0.658,1.479-1.48,1.479H7.786c-0.822,0-1.48-0.657-1.48-1.479V14.283
			c0-0.822,0.658-1.48,1.48-1.48h1.48V8.364c0-3.261,2.658-5.919,5.919-5.919c3.26,0,5.918,2.658,5.918,5.919v4.439h1.479
			C23.406,12.803,24.064,13.461,24.064,14.283z M12.226,12.803h5.918V8.364c0-1.644-1.314-2.959-2.958-2.959
			s-2.959,1.315-2.959,2.959L12.226,12.803L12.226,12.803z"/>
	</g>
</g>
<g id="Layer_2_copy" display="none">
	<g display="inline">
		<path fill="#FFFFFF" d="M24.064,14.283v10.359c0,0.821-0.658,1.479-1.48,1.479H7.786c-0.822,0-1.48-0.657-1.48-1.479V14.283
			c0-0.822,0.658-1.48,1.48-1.48h1.48V8.364c0-3.261,2.658-5.919,5.919-5.919c3.26,0,5.918,2.658,5.918,5.919v4.439h1.479
			C23.406,12.803,24.064,13.461,24.064,14.283z M12.226,12.803h5.918V8.364c0-1.644-1.314-2.959-2.958-2.959
			s-2.959,1.315-2.959,2.959L12.226,12.803L12.226,12.803z"/>
	</g>
</g>
<g>
	<path fill="#00D38C" d="M4.25,26.122l0.181-2.12C4.884,19.757,8.609,17.43,15,17.43s10.116,2.327,10.57,6.559l0.18,2.134h-2.069
		L23.5,24.183c-0.401-3.869-4.826-4.724-8.5-4.724c-3.673,0-8.099,0.854-8.499,4.736l-0.182,1.927H4.25z M9.204,8.8
		c0-3.169,2.653-5.86,5.796-5.86c3.145,0,5.797,2.69,5.797,5.86c0,3.972-2.497,6.974-5.797,6.974S9.204,12.772,9.204,8.8z
		 M11.224,8.8c0,2.834,1.617,4.968,3.776,4.968c2.16,0,3.777-2.134,3.777-4.968c0-2.043-1.772-3.854-3.777-3.854
		S11.224,6.756,11.224,8.8z"/>
</g>
</svg>
