<?xml version="1.0" encoding="utf-8"?>
<!-- Generator: Adobe Illustrator 15.0.0, SVG Export Plug-In . SVG Version: 6.00 Build 0)  -->
<!DOCTYPE svg PUBLIC "-//W3C//DTD SVG 1.1//EN" "http://www.w3.org/Graphics/SVG/1.1/DTD/svg11.dtd">
<svg version="1.1" xmlns="http://www.w3.org/2000/svg" xmlns:xlink="http://www.w3.org/1999/xlink" x="0px" y="0px" width="30px"
	 height="30px" viewBox="0 0 30 30" enable-background="new 0 0 30 30" xml:space="preserve">
<g id="Layer_1" display="none">
	<g display="inline">
		<path fill="#00D38C" d="M27.023,25.629c0,0.273-0.219,0.493-0.493,0.493H3.839c-0.274,0-0.493-0.22-0.493-0.493v-0.986
			c0-4.934,8.879-3.946,8.879-7.893c0,0-2.96-2.96-2.96-8.386c0-3.261,2.658-5.919,5.919-5.919s5.919,2.658,5.919,5.919
			c0,5.426-2.96,8.386-2.96,8.386c0,3.946,8.879,2.959,8.879,7.893V25.629z"/>
	</g>
</g>
<g id="Layer_1_copy">
	<g>
		<path fill="#FFFFFF" d="M27.023,25.629c0,0.273-0.219,0.493-0.493,0.493H3.839c-0.274,0-0.493-0.22-0.493-0.493v-0.986
			c0-4.934,8.879-3.946,8.879-7.893c0,0-2.96-2.96-2.96-8.386c0-3.261,2.658-5.919,5.919-5.919s5.919,2.658,5.919,5.919
			c0,5.426-2.96,8.386-2.96,8.386c0,3.946,8.879,2.959,8.879,7.893V25.629z"/>
	</g>
</g>
<g id="Layer_2" display="none">
	<g display="inline">
		<path fill="#00D38C" d="M24.064,14.283v10.359c0,0.822-0.658,1.479-1.48,1.479H7.786c-0.822,0-1.48-0.657-1.48-1.479V14.283
			c0-0.822,0.658-1.48,1.48-1.48h1.48V8.364c0-3.261,2.658-5.919,5.919-5.919s5.919,2.658,5.919,5.919v4.439h1.479
			C23.406,12.803,24.064,13.461,24.064,14.283z M12.226,12.803h5.919V8.364c0-1.644-1.315-2.959-2.959-2.959
			s-2.959,1.315-2.959,2.959V12.803z"/>
	</g>
</g>
<g id="Layer_2_copy" display="none">
	<g display="inline">
		<path fill="#FFFFFF" d="M24.064,14.283v10.359c0,0.822-0.658,1.479-1.48,1.479H7.786c-0.822,0-1.48-0.657-1.48-1.479V14.283
			c0-0.822,0.658-1.48,1.48-1.48h1.48V8.364c0-3.261,2.658-5.919,5.919-5.919s5.919,2.658,5.919,5.919v4.439h1.479
			C23.406,12.803,24.064,13.461,24.064,14.283z M12.226,12.803h5.919V8.364c0-1.644-1.315-2.959-2.959-2.959
			s-2.959,1.315-2.959,2.959V12.803z"/>
	</g>
</g>
</svg>
