<?xml version="1.0" encoding="utf-8"?>
<!-- Generator: Adobe Illustrator 15.0.0, SVG Export Plug-In . SVG Version: 6.00 Build 0)  -->
<!DOCTYPE svg PUBLIC "-//W3C//DTD SVG 1.1//EN" "http://www.w3.org/Graphics/SVG/1.1/DTD/svg11.dtd">
<svg version="1.1" id="Layer_1" xmlns="http://www.w3.org/2000/svg" xmlns:xlink="http://www.w3.org/1999/xlink" x="0px" y="0px"
	 width="200px" height="200px" viewBox="0 0 200 200" enable-background="new 0 0 200 200" xml:space="preserve">
<g id="Layer_1_1_" display="none">
	<rect display="inline" fill="#009E69" width="200" height="200"/>
	<path display="inline" fill="#00D38C" d="M57.497,143.104c-1.6-0.5-2.6-2.102-2.199-3.801c2-9.4,7.2-14.402,14.301-18.902
		c2-1.197,4.4-2.197,7-3.299c4.9-1.898,10.4-4.102,11.602-7.801C88.9,106.9,87.9,103.6,85.2,99.4c-8.3-13.401-9.8-25.001-4.4-34.302
		c4.2-7.2,11.301-11.5,19.201-11.5c7.801,0,15.001,4.3,19.201,11.5c5.399,9.301,3.899,20.901-4.5,34.302c-2.7,4.2-3.7,7.5-2.9,9.901
		c1.2,3.699,6.7,5.9,11.501,7.801c2.7,1.102,5.2,2.102,7.102,3.299c7.102,4.5,12.302,9.502,14.302,18.902
		c0.397,1.699-0.603,3.301-2.2,3.801c-0.398,0.102-11.398,3.299-42.503,3.299c-15.501,0-26.001-0.799-32.702-1.6
		C60.598,144.002,57.698,143.104,57.497,143.104z"/>
</g>
<rect fill="#009E69" width="200" height="200"/>
<rect x="-10.5" y="-21.497" opacity="0" width="221" height="256"/>
<path fill="#00D38C" d="M57.495,139.202c-1.601-0.5-2.601-2.1-2.2-3.8c2-9.4,7.2-14.4,14.301-18.9c2-1.201,4.4-2.201,7-3.301
	c4.9-1.9,10.4-4.1,11.601-7.801c0.7-2.4-0.3-5.7-3-9.9c-8.301-13.401-9.801-25.001-4.4-34.302c4.2-7.2,11.301-11.5,19.201-11.5
	c7.801,0,15.001,4.3,19.201,11.5c5.4,9.301,3.9,20.901-4.5,34.302c-2.7,4.2-3.7,7.5-2.9,9.9c1.2,3.701,6.7,5.9,11.501,7.801
	c2.7,1.1,5.2,2.1,7.101,3.301c7.101,4.5,12.301,9.5,14.301,18.9c0.399,1.7-0.601,3.3-2.2,3.8c-0.4,0.101-11.4,3.301-42.503,3.301
	c-15.501,0-26.001-0.8-32.702-1.6C60.595,140.103,57.694,139.202,57.495,139.202z"/>
</svg>
