<?xml version="1.0" encoding="utf-8"?>
<!-- Generator: Adobe Illustrator 15.0.0, SVG Export Plug-In . SVG Version: 6.00 Build 0)  -->
<!DOCTYPE svg PUBLIC "-//W3C//DTD SVG 1.1//EN" "http://www.w3.org/Graphics/SVG/1.1/DTD/svg11.dtd">
<svg version="1.1" id="Layer_1" xmlns="http://www.w3.org/2000/svg" xmlns:xlink="http://www.w3.org/1999/xlink" x="0px" y="0px"
	 width="150px" height="150px" viewBox="0 0 150 150" enable-background="new 0 0 150 150" xml:space="preserve">
<g id="Layer_1_1_" display="none">
	<rect display="inline" fill="#009E69" width="200" height="200"/>
	<path display="inline" fill="#00D38C" d="M57.497,143.104c-1.6-0.5-2.6-2.102-2.199-3.801c2-9.4,7.2-14.402,14.301-18.902
		c2-1.195,4.4-2.195,7-3.299c4.899-1.896,10.399-4.102,11.602-7.801c0.699-2.4-0.301-5.701-3.001-9.9
		c-8.3-13.401-9.8-25.001-4.4-34.302c4.2-7.2,11.302-11.5,19.201-11.5c7.801,0,15.001,4.3,19.201,11.5
		c5.399,9.301,3.899,20.901-4.5,34.302c-2.7,4.199-3.7,7.5-2.9,9.9c1.2,3.699,6.7,5.9,11.501,7.801c2.7,1.104,5.2,2.104,7.102,3.299
		c7.104,4.5,12.304,9.502,14.304,18.902c0.396,1.699-0.604,3.301-2.2,3.801c-0.396,0.104-11.396,3.299-42.503,3.299
		c-15.501,0-26.001-0.799-32.702-1.6C60.598,144.002,57.698,143.104,57.497,143.104z"/>
</g>
<rect x="-0.043" y="-0.357" fill="#009E69" width="151.567" height="151.566"/>
<rect x="-8" y="-16.648" fill-opacity="0" width="167.482" height="194.006"/>
<path fill="#00D38C" d="M43.529,105.135c-1.213-0.379-1.971-1.592-1.667-2.879c1.516-7.125,5.457-10.913,10.838-14.324
	c1.516-0.91,3.334-1.668,5.305-2.501c3.713-1.44,7.881-3.106,8.793-5.912c0.53-1.817-0.228-4.319-2.273-7.502
	c-6.291-10.156-7.428-18.947-3.334-25.995c3.183-5.457,8.564-8.715,14.551-8.715c5.912,0,11.369,3.259,14.552,8.715
	c4.093,7.048,2.956,15.839-3.409,25.995c-2.047,3.183-2.805,5.685-2.199,7.502c0.91,2.806,5.078,4.472,8.717,5.912
	c2.047,0.833,3.941,1.591,5.381,2.501c5.382,3.411,9.322,7.199,10.839,14.324c0.304,1.287-0.455,2.5-1.667,2.879
	c-0.304,0.076-8.64,2.502-32.211,2.502c-11.747,0-19.704-0.605-24.783-1.213C45.879,105.818,43.68,105.135,43.529,105.135z"/>
</svg>
