<?xml version="1.0" encoding="utf-8"?>
<!-- Generator: Adobe Illustrator 15.0.0, SVG Export Plug-In . SVG Version: 6.00 Build 0)  -->
<!DOCTYPE svg PUBLIC "-//W3C//DTD SVG 1.1//EN" "http://www.w3.org/Graphics/SVG/1.1/DTD/svg11.dtd">
<svg version="1.1" id="Layer_1" xmlns="http://www.w3.org/2000/svg" xmlns:xlink="http://www.w3.org/1999/xlink" x="0px" y="0px"
	 width="150px" height="150px" viewBox="25 25 150 150" enable-background="new 25 25 150 150" xml:space="preserve">
<g id="Layer_1_1_" display="none">
	<rect display="inline" fill="#009E69" width="200" height="200"/>
	<path display="inline" fill="#00D38C" d="M57.497,143.104c-1.6-0.5-2.6-2.102-2.199-3.801c2-9.4,7.2-14.402,14.301-18.902
		c2-1.196,4.4-2.196,7-3.299c4.9-1.897,10.4-4.102,11.602-7.801C88.9,106.9,87.9,103.6,85.2,99.4c-8.3-13.401-9.8-25.001-4.4-34.302
		c4.2-7.2,11.301-11.5,19.201-11.5c7.801,0,15.001,4.3,19.201,11.5c5.399,9.301,3.899,20.901-4.5,34.302c-2.7,4.2-3.7,7.5-2.9,9.901
		c1.2,3.699,6.7,5.9,11.501,7.801c2.7,1.103,5.2,2.103,7.102,3.299c7.103,4.5,12.303,9.502,14.303,18.902
		c0.396,1.699-0.604,3.301-2.2,3.801c-0.397,0.103-11.397,3.299-42.503,3.299c-15.501,0-26.001-0.799-32.702-1.6
		C60.598,144.002,57.698,143.104,57.497,143.104z"/>
</g>
<rect x="25.216" y="23.791" fill="#009E69" width="151.567" height="151.567"/>
<rect x="17.259" y="7.5" fill-opacity="0" width="167.482" height="194.006"/>
<path fill="#00D38C" d="M68.788,129.283c-1.213-0.379-1.971-1.592-1.667-2.879c1.516-7.124,5.457-10.913,10.838-14.324
	c1.516-0.91,3.334-1.668,5.305-2.501c3.713-1.44,7.881-3.106,8.792-5.912c0.531-1.818-0.227-4.319-2.273-7.502
	c-6.291-10.156-7.428-18.947-3.334-25.995c3.183-5.457,8.564-8.715,14.551-8.715c5.912,0,11.369,3.259,14.552,8.715
	c4.093,7.048,2.956,15.839-3.41,25.995c-2.046,3.183-2.804,5.684-2.198,7.502c0.91,2.806,5.078,4.471,8.716,5.912
	c2.047,0.833,3.941,1.591,5.381,2.501c5.382,3.411,9.323,7.2,10.839,14.324c0.303,1.287-0.455,2.5-1.667,2.879
	c-0.304,0.076-8.64,2.502-32.211,2.502c-11.747,0-19.704-0.606-24.783-1.213C71.138,129.967,68.939,129.283,68.788,129.283z"/>
</svg>
